<?xml version="1.0" encoding="UTF-8"?>
<svg id="Camada_2" data-name="Camada 2" xmlns="http://www.w3.org/2000/svg" xmlns:xlink="http://www.w3.org/1999/xlink" viewBox="26 27 166 166">
  <defs>
    <style>
      .cls-1 {
        fill: none;
      }

      .cls-2 {
        fill: url(#Gradiente_sem_nome_4);
      }

      .cls-3 {
        clip-path: url(#clippath);
      }
    </style>
    <clipPath id="clippath">
      <path class="cls-1" d="M64.38,92.26l18.67,10.82c10.06,5.83,16.25,16.6,16.25,28.25v26.07l-30.14-20.11,17.94-10.92c2.72-1.65,3.51-5.27,1.66-7.93-1.69-2.42-5.04-2.99-7.55-1.46l-16.83,10.24v-34.96ZM101,47.89c-1.13,1.07-1.71,2.61-1.71,4.17v29.94c0,3.32,2.82,6.14,6.25,5.68,2.79-.37,4.8-2.88,4.8-5.69v-20.52l36.11,20.82-25.81,12.9c-9.76,4.88-21.31,4.52-30.75-.95l-28.28-16.39c-2.07-1.2-4.73-.95-6.55.76-1.15,1.07-1.74,2.62-1.74,4.2v54.44c0,1.81.93,3.49,2.47,4.45l45.97,30.68c.92.62,1.99.93,3.06.93,1.01,0,2.02-.28,2.91-.83,1.67-1.03,2.61-2.93,2.61-4.9v-34.62c0-12.38,6.98-23.69,18.02-29.21l24.26-12.12v40.63s-22.68-14.15-22.68-14.15c-2.62-1.64-6.08-.8-7.66,1.87-1.58,2.67-.6,6.03,1.98,7.65l30.97,19.32c.89.55,1.9.83,2.92.83,1.45,0,2.92-.58,4.02-1.74,1.01-1.07,1.5-2.53,1.5-4v-59.46c-.04-1.95-1.1-3.75-2.78-4.73l-53.33-30.75c-.85-.49-1.8-.74-2.76-.74-1.37,0-2.74.51-3.82,1.53"/>
    </clipPath>
    <linearGradient id="Gradiente_sem_nome_4" data-name="Gradiente sem gnome 4" x1="769.75" y1="-336.9" x2="770.75" y2="-336.9" gradientTransform="translate(112916.28 49448.14) rotate(-180) scale(146.45 -146.45)" gradientUnits="userSpaceOnUse">
      <stop offset="0" stop-color="#4761f8"/>
      <stop offset="0" stop-color="#4761f8"/>
      <stop offset=".22" stop-color="#4a69f8"/>
      <stop offset=".58" stop-color="#5480fb"/>
      <stop offset="1" stop-color="#64a4ff"/>
      <stop offset="1" stop-color="#64a4ff"/>
    </linearGradient>
  </defs>
  <g id="Camada_1-2" data-name="Camada 1">
    <g class="cls-3">
      <rect class="cls-2" x="29.69" y="27.7" width="157.64" height="164.28" transform="translate(-39.32 65.28) rotate(-28.57)"/>
    </g>
  </g>
</svg>
